<?xml version="1.0" standalone="no"?>
<!DOCTYPE svg PUBLIC "-//W3C//DTD SVG 20010904//EN"
 "http://www.w3.org/TR/2001/REC-SVG-20010904/DTD/svg10.dtd">
<svg version="1.0" xmlns="http://www.w3.org/2000/svg"
 width="1000.000000pt" height="780.000000pt" viewBox="0 0 1000.000000 780.000000"
 preserveAspectRatio="xMidYMid meet">

<g transform="translate(0.000000,780.000000) scale(0.100000,-0.100000)"
fill="#000000" stroke="none">
<path d="M4177 6703 c-4 -3 -7 -111 -7 -240 l0 -233 29 0 c21 0 28 5 27 16 0
9 5 19 13 22 10 3 12 -1 8 -17 -4 -16 -1 -21 13 -21 10 0 17 6 16 13 0 6 4 12
9 12 6 0 9 -6 9 -12 -1 -7 4 -13 12 -13 9 0 14 -11 14 -30 l0 -30 -355 0 -355
0 0 -37 0 -38 1390 0 1390 0 0 38 0 37 -350 0 -351 0 3 47 c2 29 8 48 17 51
10 3 12 -1 8 -17 -4 -16 -1 -21 13 -21 10 0 17 6 16 13 0 6 4 12 9 12 6 0 9
-6 9 -12 -1 -8 11 -13 32 -13 l34 0 -2 238 -3 237 -821 3 c-451 1 -824 -1
-827 -5z m33 -29 c0 -16 -16 -19 -25 -4 -8 13 4 32 16 25 5 -4 9 -13 9 -21z
m40 11 c0 -8 -7 -15 -15 -15 -8 0 -15 7 -15 15 0 8 7 15 15 15 8 0 15 -7 15
-15z m50 0 c0 -8 -7 -15 -15 -15 -8 0 -15 7 -15 15 0 8 7 15 15 15 8 0 15 -7
15 -15z m45 4 c10 -15 -1 -23 -20 -15 -9 3 -13 10 -10 16 8 13 22 13 30 -1z
m50 1 c3 -6 -1 -13 -10 -16 -19 -8 -30 0 -20 15 8 14 22 14 30 1z m45 -5 c0
-8 -7 -15 -15 -15 -8 0 -15 7 -15 15 0 8 7 15 15 15 8 0 15 -7 15 -15z m48 -3
c2 -7 -3 -12 -12 -12 -9 0 -16 7 -16 16 0 17 22 14 28 -4z m47 7 c10 -15 -1
-23 -20 -15 -9 3 -13 10 -10 16 8 13 22 13 30 -1z m50 1 c3 -6 -1 -13 -10 -16
-19 -8 -30 0 -20 15 8 14 22 14 30 1z m45 -5 c0 -8 -7 -15 -15 -15 -8 0 -15 7
-15 15 0 8 7 15 15 15 8 0 15 -7 15 -15z m50 0 c0 -8 -7 -15 -15 -15 -8 0 -15
7 -15 15 0 8 7 15 15 15 8 0 15 -7 15 -15z m45 4 c10 -15 -1 -23 -20 -15 -9 3
-13 10 -10 16 8 13 22 13 30 -1z m50 1 c3 -6 -1 -13 -10 -16 -19 -8 -30 0 -20
15 8 14 22 14 30 1z m45 -5 c0 -8 -7 -15 -15 -15 -16 0 -20 12 -8 23 11 12 23
8 23 -8z m50 0 c0 -8 -7 -15 -15 -15 -8 0 -15 7 -15 15 0 8 7 15 15 15 8 0 15
-7 15 -15z m45 4 c10 -15 -1 -23 -20 -15 -9 3 -13 10 -10 16 8 13 22 13 30 -1z
m50 1 c3 -6 -1 -13 -10 -16 -19 -8 -30 0 -20 15 8 14 22 14 30 1z m45 -5 c0
-8 -7 -15 -15 -15 -16 0 -20 12 -8 23 11 12 23 8 23 -8z m48 -3 c2 -7 -3 -12
-12 -12 -9 0 -16 7 -16 16 0 17 22 14 28 -4z m47 7 c10 -15 -1 -23 -20 -15 -9
3 -13 10 -10 16 8 13 22 13 30 -1z m50 1 c3 -6 -1 -13 -10 -16 -19 -8 -30 0
-20 15 8 14 22 14 30 1z m45 -5 c0 -8 -7 -15 -15 -15 -8 0 -15 7 -15 15 0 8 7
15 15 15 8 0 15 -7 15 -15z m48 -3 c2 -7 -3 -12 -12 -12 -9 0 -16 7 -16 16 0
17 22 14 28 -4z m47 7 c10 -15 -1 -23 -20 -15 -9 3 -13 10 -10 16 8 13 22 13
30 -1z m50 1 c3 -6 -1 -13 -10 -16 -19 -8 -30 0 -20 15 8 14 22 14 30 1z m45
-5 c0 -8 -7 -15 -15 -15 -16 0 -20 12 -8 23 11 12 23 8 23 -8z m48 -3 c2 -7
-3 -12 -12 -12 -9 0 -16 7 -16 16 0 17 22 14 28 -4z m47 7 c10 -15 -1 -23 -20
-15 -9 3 -13 10 -10 16 8 13 22 13 30 -1z m50 1 c3 -6 -1 -13 -10 -16 -19 -8
-30 0 -20 15 8 14 22 14 30 1z m45 -5 c0 -8 -7 -15 -15 -15 -8 0 -15 7 -15 15
0 8 7 15 15 15 8 0 15 -7 15 -15z m48 -3 c2 -7 -3 -12 -12 -12 -9 0 -16 7 -16
16 0 17 22 14 28 -4z m47 7 c10 -15 -1 -23 -20 -15 -9 3 -13 10 -10 16 8 13
22 13 30 -1z m50 1 c3 -6 -1 -13 -10 -16 -19 -8 -30 0 -20 15 8 14 22 14 30 1z
m45 -5 c0 -8 -7 -15 -15 -15 -8 0 -15 7 -15 15 0 8 7 15 15 15 8 0 15 -7 15
-15z m48 -7 c-6 -18 -28 -21 -28 -4 0 9 7 16 16 16 9 0 14 -5 12 -12z m-1608
-42 c0 -8 -4 -17 -9 -21 -12 -7 -24 12 -16 25 9 15 25 12 25 -4z m1605 -4 c0
-18 -20 -15 -23 4 -3 10 1 15 10 12 7 -3 13 -10 13 -16z m-1605 -47 c0 -8 -7
-15 -15 -15 -8 0 -15 7 -15 15 0 8 7 15 15 15 8 0 15 -7 15 -15z m1610 0 c0
-8 -7 -15 -15 -15 -8 0 -15 7 -15 15 0 8 7 15 15 15 8 0 15 -7 15 -15z m-1240
-50 l0 -45 40 0 40 0 0 45 c0 41 2 45 25 45 l25 0 0 -109 c0 -90 -3 -110 -16
-115 -26 -10 -34 2 -34 50 l0 44 -39 0 -40 0 -3 -47 c-3 -40 -6 -48 -23 -48
-19 0 -20 8 -23 113 l-3 112 26 0 c23 0 25 -4 25 -45z m340 17 c82 -82 17
-219 -93 -198 -64 12 -99 78 -78 146 24 81 115 108 171 52z m210 3 c0 -21 -5
-25 -30 -25 l-29 0 -3 -87 c-3 -80 -5 -88 -23 -88 -18 0 -20 8 -23 87 -3 86
-3 87 -30 90 -19 2 -28 9 -30 26 -3 21 -1 22 82 22 85 0 86 0 86 -25z m170 6
c0 -16 -8 -20 -42 -23 -36 -2 -44 -7 -46 -25 -3 -21 1 -23 37 -23 34 0 41 -3
41 -20 0 -17 -7 -20 -40 -20 -36 0 -40 -2 -40 -25 0 -23 4 -25 46 -25 41 0 45
-2 42 -22 -3 -21 -8 -23 -68 -23 l-65 0 -3 113 -3 112 71 0 c63 0 70 -2 70
-19z m88 -73 l3 -88 40 0 c36 0 40 -2 37 -22 -2 -19 -11 -23 -47 -26 -23 -2
-54 -1 -67 2 -24 6 -24 9 -24 117 l0 110 28 -3 c27 -3 27 -3 30 -90z m-1178
46 c0 -9 -5 -14 -12 -12 -18 6 -21 28 -4 28 9 0 16 -7 16 -16z m1608 4 c-6
-18 -28 -21 -28 -4 0 9 7 16 16 16 9 0 14 -5 12 -12z m-1608 -42 c0 -8 -4 -17
-9 -21 -12 -7 -24 12 -16 25 9 15 25 12 25 -4z m1605 -4 c0 -18 -20 -15 -23 4
-3 10 1 15 10 12 7 -3 13 -10 13 -16z m-1605 -47 c0 -8 -7 -15 -15 -15 -16 0
-20 12 -8 23 11 12 23 8 23 -8z m1610 0 c0 -8 -7 -15 -15 -15 -8 0 -15 7 -15
15 0 8 7 15 15 15 8 0 15 -7 15 -15z m-1610 -50 c0 -8 -7 -15 -15 -15 -8 0
-15 7 -15 15 0 8 7 15 15 15 8 0 15 -7 15 -15z m1610 0 c0 -8 -7 -15 -15 -15
-8 0 -15 7 -15 15 0 8 7 15 15 15 8 0 15 -7 15 -15z m-1610 -51 c0 -16 -16
-19 -25 -4 -8 13 4 32 16 25 5 -4 9 -13 9 -21z m1602 -6 c-6 -6 -15 -9 -18 -5
-4 3 -4 14 0 23 5 13 9 15 18 6 9 -9 9 -15 0 -24z m-1602 -33 c0 -8 -7 -15
-15 -15 -16 0 -20 12 -8 23 11 12 23 8 23 -8z m1608 -3 c2 -7 -3 -12 -12 -12
-9 0 -16 7 -16 16 0 17 22 14 28 -4z m-1608 -47 c0 -8 -7 -15 -15 -15 -8 0
-15 7 -15 15 0 8 7 15 15 15 8 0 15 -7 15 -15z m136 4 c8 -14 -11 -33 -25 -25
-11 7 -4 36 9 36 5 0 12 -5 16 -11z m50 0 c3 -6 0 -15 -7 -20 -11 -7 -9 -9 7
-9 14 0 21 6 20 16 0 9 5 19 13 22 10 3 12 -1 8 -17 -4 -16 -1 -21 13 -21 10
0 17 6 16 13 0 6 4 12 9 12 6 0 9 -6 9 -12 -1 -7 8 -13 20 -13 17 0 18 2 6 10
-11 7 -12 12 -3 21 14 14 36 2 29 -17 -3 -8 1 -14 9 -14 8 0 12 6 9 14 -7 19
15 31 29 17 9 -9 8 -14 -3 -21 -12 -8 -11 -10 6 -10 12 0 21 6 20 13 0 6 4 12
9 12 6 0 9 -6 9 -12 -1 -7 6 -13 16 -13 10 0 17 6 16 13 0 6 4 12 9 12 6 0 9
-6 9 -12 -1 -7 8 -13 20 -13 17 0 18 2 6 10 -11 7 -12 12 -3 21 14 14 36 2 29
-17 -3 -8 1 -14 9 -14 8 0 12 6 9 14 -7 19 15 31 29 17 9 -9 8 -14 -3 -21 -12
-8 -11 -10 6 -10 12 0 21 6 20 13 0 6 4 12 9 12 6 0 9 -6 9 -12 -1 -7 6 -13
16 -13 14 0 17 5 13 21 -4 16 -2 20 8 17 8 -3 13 -13 13 -22 -1 -10 6 -16 20
-16 17 0 18 2 6 10 -11 7 -12 12 -3 21 14 14 36 2 29 -17 -3 -8 1 -14 9 -14 8
0 12 6 9 14 -6 16 11 30 26 21 8 -5 8 -11 0 -20 -8 -9 -6 -14 9 -18 14 -3 17
-11 14 -31 l-5 -26 -314 0 -314 0 0 24 c0 14 5 28 10 31 6 4 8 11 5 16 -7 11
2 29 15 29 5 0 12 -5 16 -11z m614 -3 c0 -8 -4 -17 -9 -21 -12 -7 -24 12 -16
25 9 15 25 12 25 -4z m44 -10 c-1 -10 6 -16 20 -16 17 0 18 2 6 10 -11 7 -12
12 -3 21 14 14 36 2 29 -17 -3 -8 1 -14 8 -14 8 0 13 7 12 16 0 9 5 19 13 22
10 3 12 -1 8 -17 -4 -16 -1 -21 13 -21 10 0 17 6 16 13 0 6 4 12 9 12 6 0 9
-6 9 -12 -1 -7 6 -13 16 -13 10 0 17 6 16 13 0 6 4 12 9 12 6 0 9 -6 9 -12 -1
-7 8 -13 20 -13 17 0 18 2 6 10 -11 7 -12 12 -3 21 14 14 36 2 29 -17 -3 -8 1
-14 8 -14 8 0 13 7 12 16 0 9 5 19 13 22 10 3 12 -1 8 -17 -4 -16 -1 -21 13
-21 10 0 17 6 16 13 0 6 4 12 9 12 6 0 9 -6 9 -12 -1 -7 6 -13 16 -13 14 0 17
5 13 21 -4 16 -2 20 8 17 8 -3 13 -13 13 -22 -1 -9 4 -16 11 -16 7 0 12 8 11
18 0 9 6 17 14 17 8 0 14 -8 14 -17 -1 -10 4 -18 12 -18 7 0 11 6 8 14 -7 19
16 32 27 15 5 -8 3 -17 -4 -21 -8 -5 -4 -8 9 -8 12 0 21 6 20 13 0 6 4 12 9
12 6 0 9 -6 9 -12 -1 -7 6 -13 16 -13 10 0 17 6 16 13 0 6 4 13 9 15 6 1 10
-4 10 -10 0 -7 8 -16 18 -20 12 -5 17 -16 15 -33 -2 -14 -6 -25 -10 -25 -5 0
-147 0 -317 0 l-309 0 -5 26 c-3 15 0 28 8 30 7 3 10 14 7 26 -3 15 -1 19 9
16 8 -3 13 -13 13 -22z m622 13 c10 -17 -13 -36 -27 -22 -12 12 -4 33 11 33 5
0 12 -5 16 -11z m144 -4 c0 -8 -7 -15 -15 -15 -8 0 -15 7 -15 15 0 8 7 15 15
15 8 0 15 -7 15 -15z"/>
<path d="M4817 6522 c-26 -28 -22 -97 5 -116 29 -20 34 -20 58 4 26 26 27 90
2 113 -24 22 -45 21 -65 -1z"/>
<path d="M3824 5601 c-21 -21 9 -26 151 -28 139 -1 155 0 155 15 0 15 -16 17
-151 17 -83 0 -153 -2 -155 -4z"/>
<path d="M4503 5598 c-14 -24 17 -29 160 -26 118 2 152 6 152 16 0 10 -34 14
-153 15 -85 1 -156 -1 -159 -5z"/>
<path d="M5183 5598 c-11 -20 16 -24 162 -26 140 -3 156 -1 153 13 -3 14 -24
17 -156 18 -85 1 -156 -1 -159 -5z"/>
<path d="M5870 5590 c0 -13 25 -15 156 -17 135 -1 155 0 152 14 -5 22 -308 26
-308 3z"/>
<path d="M6200 5471 c-82 -22 -162 -62 -229 -112 l-51 -39 -1155 0 -1155 0 0
-35 0 -35 1120 0 c616 0 1120 -3 1120 -6 0 -3 -9 -18 -20 -34 -11 -15 -33 -56
-50 -91 -173 -366 51 -818 445 -899 295 -61 583 77 718 345 157 313 22 706
-294 858 -52 25 -118 50 -147 56 -80 16 -227 13 -302 -8z m299 -56 c157 -37
314 -162 385 -306 164 -333 -19 -732 -379 -824 -73 -19 -213 -19 -280 -1 -310
83 -496 380 -431 687 45 209 223 393 432 443 78 19 194 19 273 1z m-624 -124
c3 -5 2 -12 -3 -15 -5 -3 -9 1 -9 9 0 17 3 19 12 6z"/>
<path d="M2692 5383 c-114 -276 -142 -445 -107 -647 44 -250 157 -453 434
-776 65 -75 132 -157 149 -182 l32 -47 0 -480 c0 -265 4 -481 8 -481 31 0 32
25 32 793 0 510 3 775 10 788 9 16 22 19 80 19 l69 0 36 -55 c28 -44 33 -60
25 -75 -19 -36 -10 -44 19 -16 l29 28 -24 46 c-37 70 -35 72 56 72 48 0 80 -4
80 -10 0 -6 -7 -27 -16 -48 -15 -36 -15 -37 12 -60 31 -27 39 -24 23 10 -9 21
-7 32 10 67 l21 41 348 0 c257 0 351 -3 360 -12 9 -9 12 -233 12 -944 0 -840
-2 -934 -16 -948 -14 -15 -74 -16 -553 -16 -461 1 -541 3 -560 16 -20 14 -21
24 -21 145 0 71 -4 129 -8 129 -27 0 -32 -30 -32 -207 0 -134 4 -192 14 -216
16 -39 61 -82 99 -96 19 -7 193 -11 506 -11 l478 0 47 25 c37 20 62 25 117 25
49 0 69 4 69 13 0 21 -17 40 -29 33 -6 -4 -18 -3 -27 2 -12 7 -3 9 32 8 27 -1
60 1 74 5 15 4 -11 7 -62 8 l-88 1 0 1020 c0 1004 0 1021 -20 1060 -11 22 -39
52 -62 67 l-42 28 -333 1 c-183 1 -345 5 -358 8 -24 6 -25 10 -25 74 1 58 2
65 14 49 11 -15 46 -15 46 -1 0 21 -46 87 -66 94 -34 13 -34 13 -34 -15 0 -14
-4 -25 -10 -25 -5 0 -10 5 -10 11 0 8 -4 8 -14 0 -11 -10 -16 -8 -21 8 -8 27
-17 26 -42 -1 -41 -46 -39 -108 3 -108 21 0 24 -5 24 -39 0 -23 8 -48 20 -64
25 -31 25 -37 1 -37 -10 0 -26 11 -35 25 -31 48 -142 30 -209 -33 -20 -20 -42
-52 -47 -72 -5 -19 -10 -156 -10 -305 l-1 -270 -20 25 c-11 14 -77 90 -147
169 -164 186 -249 301 -316 431 -101 195 -132 324 -123 514 5 121 25 217 66
321 10 28 33 86 50 129 44 114 31 105 -17 -11z m1328 -943 c0 -16 -59 -21
-199 -18 -96 2 -136 7 -139 16 -3 9 35 12 167 12 102 0 171 -4 171 -10z m428
-2146 c6 3 13 2 16 -2 3 -5 -4 -9 -16 -8 -12 0 -23 8 -25 16 -4 12 -3 13 5 1
5 -7 14 -11 20 -7z"/>
<path d="M3492 4848 c-7 -7 -11 -23 -11 -37 1 -15 3 -19 6 -10 3 13 12 15 43
9 50 -9 63 13 20 35 -35 18 -42 19 -58 3z"/>
<path d="M3820 4725 c0 -13 24 -15 155 -15 131 0 155 2 155 15 0 13 -24 15
-155 15 -131 0 -155 -2 -155 -15z"/>
<path d="M4500 4725 c0 -13 24 -15 160 -15 136 0 160 2 160 15 0 13 -24 15
-160 15 -136 0 -160 -2 -160 -15z"/>
<path d="M5180 4725 c0 -13 24 -15 160 -15 136 0 160 2 160 15 0 13 -24 15
-160 15 -136 0 -160 -2 -160 -15z"/>
<path d="M6947 4262 c-20 -21 -37 -42 -37 -47 0 -5 174 -184 387 -397 424
-424 416 -418 467 -357 14 17 26 38 26 47 0 21 -769 792 -790 792 -9 0 -33
-17 -53 -38z"/>
<path d="M3525 4216 c-15 -22 -15 -28 -1 -53 26 -52 41 -58 65 -24 23 32 27
71 9 89 -20 20 -56 14 -73 -12z"/>
<path d="M4281 4218 c-10 -28 -5 -48 23 -83 l23 -28 21 35 c37 59 25 98 -30
98 -20 0 -31 -6 -37 -22z"/>
<path d="M4504 4101 c-2 -2 -4 -10 -4 -18 0 -11 30 -13 158 -11 122 2 157 6
157 16 0 11 -34 14 -153 15 -85 1 -156 0 -158 -2z"/>
<path d="M5183 4098 c-13 -23 19 -28 163 -28 137 0 155 2 152 16 -3 13 -25 16
-156 17 -85 1 -156 -1 -159 -5z"/>
<path d="M5948 4102 c-60 -2 -78 -6 -78 -17 0 -13 26 -15 156 -15 137 0 155 2
152 16 -3 17 -72 22 -230 16z"/>
<path d="M4500 3455 c0 -13 23 -15 161 -15 124 0 160 3 157 13 -4 9 -47 13
-161 15 -135 2 -157 0 -157 -13z"/>
<path d="M5187 3463 c-20 -19 7 -23 153 -23 136 0 160 2 160 15 0 13 -24 15
-153 15 -85 0 -157 -3 -160 -7z"/>
<path d="M5870 3455 c0 -13 24 -15 155 -15 131 0 155 2 155 15 0 13 -24 15
-155 15 -131 0 -155 -2 -155 -15z"/>
<path d="M3390 3346 c0 -2 8 -10 18 -17 15 -13 16 -12 3 4 -13 16 -21 21 -21
13z"/>
<path d="M1607 3136 c-3 -8 -3 -16 1 -18 4 -2 20 -37 36 -78 29 -74 49 -85 25
-13 -7 21 -12 41 -11 46 1 4 -2 7 -8 7 -5 0 -10 8 -10 18 0 9 -7 25 -14 35
-11 15 -15 15 -19 3z"/>
<path d="M1681 3066 c-8 -10 -9 -16 -1 -21 6 -4 9 -1 8 7 -2 7 3 12 10 10 8
-1 11 2 7 8 -8 13 -10 13 -24 -4z"/>
<path d="M1570 3056 c0 -2 7 -7 16 -10 8 -3 12 -2 9 4 -6 10 -25 14 -25 6z"/>
<path d="M4640 3030 c0 -11 7 -20 15 -20 8 0 164 -1 345 -1 182 0 337 1 345 1
8 0 15 9 15 20 0 20 -7 20 -360 20 -353 0 -360 0 -360 -20z"/>
<path d="M1699 3023 c-13 -16 -12 -17 4 -4 9 7 17 15 17 17 0 8 -8 3 -21 -13z"/>
<path d="M1540 3023 c0 -5 10 -18 23 -29 l22 -19 -20 25 c-11 14 -21 27 -22
29 -2 2 -3 0 -3 -6z"/>
<path d="M1636 2993 c-6 -14 -5 -15 5 -6 7 7 10 15 7 18 -3 3 -9 -2 -12 -12z"/>
<path d="M3032 2978 c-16 -16 -16 -42 1 -31 6 4 21 9 32 10 11 2 27 6 35 9 13
4 13 6 0 14 -21 13 -54 12 -68 -2z"/>
<path d="M1500 2962 c0 -4 10 -13 23 -21 22 -14 22 -14 3 8 -20 22 -26 25 -26
13z"/>
<path d="M1580 2951 c0 -6 4 -13 10 -16 6 -3 7 1 4 9 -7 18 -14 21 -14 7z"/>
<path d="M1608 2953 c6 -2 18 -2 25 0 6 3 1 5 -13 5 -14 0 -19 -2 -12 -5z"/>
<path d="M1670 2954 c1 -16 29 -60 29 -44 0 8 -6 24 -14 34 -8 11 -15 16 -15
10z"/>
<path d="M4653 2940 c-18 -16 -21 -29 -18 -77 1 -32 13 -89 25 -126 26 -82 27
-87 11 -200 -15 -99 -7 -221 12 -214 8 2 14 41 18 101 8 114 29 157 29 59 0
-72 33 -164 52 -145 8 8 8 22 -1 52 -15 49 -5 160 15 176 15 12 8 48 -7 38
-10 -6 -10 -5 -14 74 -2 33 -10 61 -21 73 -16 18 -16 20 1 39 16 18 16 20 -4
46 -12 15 -21 41 -21 60 0 23 -7 38 -22 48 -28 20 -30 20 -55 -4z m63 -68 c7
-36 -2 -62 -24 -70 -7 -2 -12 6 -12 18 0 12 -7 28 -15 36 -8 9 -15 26 -15 38
0 19 4 22 30 18 25 -3 31 -10 36 -40z"/>
<path d="M1490 2933 c0 -6 8 -17 18 -24 16 -13 16 -13 2 6 -8 11 -16 22 -17
24 -2 2 -3 0 -3 -6z"/>
<path d="M6677 2918 c-2 -8 6 -26 18 -42 30 -38 58 -30 53 16 -3 29 -7 33 -34
36 -19 2 -33 -2 -37 -10z"/>
<path d="M1460 2900 c-8 -15 -6 -21 9 -30 13 -7 22 -7 26 0 4 6 11 8 16 4 6
-4 6 -11 -1 -19 -7 -8 -7 -15 -1 -19 5 -4 12 -2 16 3 3 6 13 7 23 4 9 -4 4 5
-13 19 -17 15 -34 23 -39 18 -13 -13 -36 -1 -29 16 3 8 10 11 16 7 6 -3 7 -1
3 5 -10 16 -14 15 -26 -8z"/>
<path d="M1557 2889 c7 -7 15 -10 18 -7 3 3 -2 9 -12 12 -14 6 -15 5 -6 -5z"/>
<path d="M1750 2859 c0 -5 5 -7 10 -4 6 3 10 8 10 11 0 2 -4 4 -10 4 -5 0 -10
-5 -10 -11z"/>
<path d="M1580 2830 c20 -13 33 -13 25 0 -3 6 -14 10 -23 10 -15 0 -15 -2 -2
-10z"/>
<path d="M6700 2820 c0 -4 7 -7 15 -6 23 3 26 12 5 13 -11 1 -20 -2 -20 -7z"/>
<path d="M6656 2795 c-11 -8 -16 -15 -10 -15 5 0 18 7 28 15 11 8 16 15 10 15
-5 0 -18 -7 -28 -15z"/>
<path d="M1538 2783 c7 -3 16 -2 19 1 4 3 -2 6 -13 5 -11 0 -14 -3 -6 -6z"/>
<path d="M1668 2783 c7 -3 16 -2 19 1 4 3 -2 6 -13 5 -11 0 -14 -3 -6 -6z"/>
<path d="M1700 2771 c0 -7 -4 -9 -10 -6 -6 4 -7 -1 -3 -11 6 -15 7 -15 15 1 6
9 7 19 4 22 -3 4 -6 1 -6 -6z"/>
<path d="M6783 2748 c9 -20 12 -38 7 -40 -5 -2 -2 -12 6 -22 23 -32 28 -9 9
36 -23 53 -42 77 -22 26z"/>
<path d="M6653 2755 c0 -8 4 -12 9 -9 5 3 6 10 3 15 -9 13 -12 11 -12 -6z"/>
<path d="M8278 2688 c-2 -40 0 -104 3 -143 4 -54 6 -37 7 73 2 149 -4 193 -10
70z"/>
<path d="M1548 2743 c7 -3 16 -2 19 1 4 3 -2 6 -13 5 -11 0 -14 -3 -6 -6z"/>
<path d="M1423 2705 c0 -8 4 -12 9 -9 5 3 6 10 3 15 -9 13 -12 11 -12 -6z"/>
<path d="M1705 2670 c-3 -5 -1 -10 4 -10 6 0 11 5 11 10 0 6 -2 10 -4 10 -3 0
-8 -4 -11 -10z"/>
<path d="M6675 2651 c-3 -5 -2 -12 3 -15 5 -3 9 1 9 9 0 17 -3 19 -12 6z"/>
<path d="M1440 2631 c0 -5 5 -13 10 -16 6 -3 10 -2 10 4 0 5 -4 13 -10 16 -5
3 -10 2 -10 -4z"/>
<path d="M5604 2631 c-2 -2 -4 -13 -4 -23 0 -17 15 -18 291 -18 289 0 290 0
287 21 -3 21 -7 21 -286 22 -156 1 -286 0 -288 -2z"/>
<path d="M4837 2624 c-8 -8 3 -34 14 -34 5 0 9 9 9 20 0 19 -11 26 -23 14z"/>
<path d="M6770 2619 c0 -5 5 -7 10 -4 6 3 10 8 10 11 0 2 -4 4 -10 4 -5 0 -10
-5 -10 -11z"/>
<path d="M3049 2603 l-57 -4 -8 -172 c-9 -169 -9 -172 -34 -184 -23 -13 -22
-13 24 -11 l48 3 4 80 c4 73 31 231 39 223 2 -2 14 -31 28 -64 23 -58 24 -68
16 -150 -5 -48 -8 -89 -6 -91 2 -1 26 -5 53 -9 45 -5 48 -4 30 10 -10 8 -23
17 -28 18 -6 2 -6 35 0 88 9 73 8 96 -11 177 -11 51 -25 92 -31 91 -6 -1 -36
-3 -67 -5z"/>
<path d="M1598 2583 c7 -3 16 -2 19 1 4 3 -2 6 -13 5 -11 0 -14 -3 -6 -6z"/>
<path d="M1633 2563 c0 -9 4 -10 14 -2 7 6 13 12 13 14 0 1 -6 2 -13 2 -8 0
-14 -6 -14 -14z"/>
<path d="M1578 2533 c7 -3 16 -2 19 1 4 3 -2 6 -13 5 -11 0 -14 -3 -6 -6z"/>
<path d="M5400 2322 c0 -4 21 -7 48 -6 26 1 54 -3 62 -8 12 -7 11 -8 -4 -3
-19 6 -36 -9 -36 -32 0 -10 99 -13 460 -13 l460 0 0 35 0 35 -495 0 c-272 0
-495 -3 -495 -8z m937 -34 c-3 -8 -6 -5 -6 6 -1 11 2 17 5 13 3 -3 4 -12 1
-19z m38 3 c-3 -6 -11 -11 -16 -11 -5 0 -4 6 3 14 14 16 24 13 13 -3z"/>
<path d="M4786 2258 c-16 -16 -26 -32 -22 -35 4 -4 20 7 36 24 37 40 25 49
-14 11z"/>
<path d="M4680 2250 c-8 -5 -25 -10 -37 -10 -12 0 -25 -5 -29 -11 -5 -8 3 -10
27 -5 19 4 42 7 52 7 9 0 17 7 17 15 0 16 -9 18 -30 4z"/>
<path d="M6610 2240 l-25 -20 98 0 c74 0 97 3 97 13 0 12 -45 16 -75 7 -5 -2
-23 2 -38 8 -34 14 -27 15 -57 -8z"/>
<path d="M0 400 l0 -400 5000 0 5000 0 0 400 0 400 -5000 0 -5000 0 0 -400z
m2192 123 c23 -20 23 -57 1 -74 -15 -11 -16 -11 -5 1 27 31 11 72 -33 83 -19
4 -19 5 -1 6 11 0 28 -6 38 -16z m-69 -8 c-3 -9 -8 -14 -10 -11 -3 3 -2 9 2
15 9 16 15 13 8 -4z m-1760 -114 c22 -61 43 -108 47 -104 4 4 24 56 45 116 21
59 42 107 47 107 11 0 9 -5 -42 -149 -23 -64 -44 -107 -53 -109 -15 -3 -17 0
-67 143 -15 44 -31 88 -36 99 -5 13 -3 17 6 14 8 -2 32 -55 53 -117z m517 89
c0 -23 4 -30 20 -30 11 0 20 -4 20 -10 0 -5 -10 -10 -21 -10 -20 0 -21 -4 -17
-71 3 -55 8 -74 23 -85 10 -8 16 -16 13 -19 -11 -11 -40 8 -49 32 -12 33 -12
223 1 223 6 0 10 -13 10 -30z m515 16 c24 -11 33 -20 29 -30 -5 -14 -9 -14
-34 -1 -36 18 -61 19 -84 2 -28 -21 -9 -45 49 -62 87 -25 108 -74 54 -127 -29
-29 -33 -30 -90 -25 -68 6 -72 8 -64 29 5 13 12 14 40 5 50 -15 100 1 100 33
0 16 -8 28 -25 36 -113 52 -119 58 -106 110 11 42 70 55 131 30z m105 -16 c0
-25 4 -30 25 -30 16 0 25 -6 25 -15 0 -9 -9 -15 -25 -15 -25 0 -26 -1 -23 -62
3 -54 6 -64 26 -73 12 -5 22 -13 22 -18 0 -17 -31 -18 -55 -3 -24 16 -25 20
-25 131 0 96 3 115 15 115 10 0 15 -10 15 -30z m482 -30 l3 -61 35 30 c19 17
44 30 55 31 16 0 12 -7 -20 -40 l-39 -40 42 -60 c40 -57 41 -60 20 -60 -16 0
-32 14 -53 45 -16 25 -33 45 -37 45 -5 0 -8 -20 -8 -45 0 -38 -3 -45 -20 -45
-19 0 -20 7 -20 130 0 122 1 130 20 130 16 0 19 -8 22 -60z m193 28 c1 -20 -2
-24 -11 -17 -8 7 -14 6 -17 -3 -3 -7 -6 2 -6 20 -1 27 3 33 17 30 11 -2 17
-13 17 -30z m-44 -35 c13 -16 12 -17 -3 -4 -17 13 -22 21 -14 21 2 0 10 -8 17
-17z m-1502 -19 c12 -15 21 -40 21 -55 0 -29 0 -29 -65 -29 -72 0 -83 -12 -44
-51 17 -17 30 -20 65 -16 43 4 59 -5 28 -17 -69 -27 -134 19 -134 95 0 87 82
133 129 73z m191 16 c17 -11 10 -13 -40 -10 -47 2 -75 -28 -75 -80 0 -55 26
-80 82 -80 27 0 42 -4 38 -10 -9 -15 -78 -12 -102 5 -50 35 -50 135 0 170 24
17 74 20 97 5z m265 -13 c20 -16 28 -35 32 -69 5 -42 3 -50 -25 -78 -41 -40
-83 -41 -123 -1 -84 85 27 226 116 148z m85 7 c0 -14 2 -14 22 0 24 17 38 20
38 9 0 -5 -14 -16 -30 -25 -29 -17 -30 -19 -30 -93 0 -43 -4 -75 -10 -75 -6 0
-10 40 -10 100 0 60 4 100 10 100 6 0 10 -7 10 -16z m545 -9 c20 -19 25 -34
25 -75 0 -63 -30 -100 -82 -100 -66 0 -103 56 -87 130 16 69 95 94 144 45z
m184 16 c21 -13 3 -32 -24 -25 -52 13 -88 -41 -65 -97 13 -31 39 -44 69 -34
23 7 39 -14 20 -26 -50 -32 -129 20 -129 85 0 67 32 104 90 105 14 0 31 -3 39
-8z m5360 -94 c8 -26 17 -47 21 -47 4 0 13 21 21 47 8 25 20 48 26 50 13 5
-22 -113 -38 -131 -12 -14 -18 -5 -45 69 -16 44 -20 65 -12 63 7 -3 19 -26 27
-51z m638 38 c2 -6 -9 -11 -23 -10 -38 0 -40 -20 -5 -35 69 -28 36 -101 -33
-74 -27 10 -18 22 17 20 38 -1 43 19 8 37 -36 18 -48 42 -31 62 14 17 61 17
67 0z m333 -20 c0 -35 16 -47 26 -20 4 8 13 15 22 15 13 0 13 -3 -2 -19 -16
-18 -16 -21 -1 -50 9 -18 11 -31 5 -31 -6 0 -16 11 -22 25 -6 14 -15 25 -20
25 -4 0 -8 -11 -8 -25 0 -14 -4 -25 -10 -25 -6 0 -10 30 -10 70 0 40 4 70 10
70 6 0 10 -16 10 -35z m580 32 c0 -4 -34 -104 -45 -136 -3 -8 -8 -11 -11 -8
-8 7 38 147 48 147 4 0 8 -2 8 -3z m98 -9 c21 -21 13 -45 -25 -77 l-38 -30 43
-1 c23 0 42 -4 42 -10 0 -5 -22 -10 -50 -10 -62 0 -65 15 -14 63 42 40 39 62
-8 53 -26 -5 -29 -4 -18 9 15 18 51 20 68 3z m112 2 c0 -5 -11 -10 -25 -10
-32 0 -32 -16 -1 -24 27 -7 41 -35 31 -65 -7 -23 -37 -35 -65 -26 -31 10 -24
23 13 21 28 -1 32 2 32 24 0 21 -4 25 -30 24 -29 -1 -30 0 -27 32 4 31 7 34
38 34 19 0 34 -4 34 -10z m112 -42 c2 -29 2 -61 0 -70 -5 -22 -22 -24 -22 -3
0 10 -10 15 -30 15 -16 0 -30 3 -30 6 0 16 56 104 67 104 6 0 13 -22 15 -52z
m110 35 c39 -35 8 -122 -44 -123 -10 0 -18 5 -18 10 0 6 9 10 20 10 10 0 24 9
31 21 9 18 8 20 -9 15 -38 -12 -68 44 -40 72 17 17 38 15 60 -5z m122 -5 c44
-63 -17 -154 -68 -102 -9 9 -16 32 -16 54 0 64 52 94 84 48z m118 -30 c2 -29
2 -61 0 -70 -5 -22 -22 -24 -22 -3 0 10 -10 15 -30 15 -16 0 -30 3 -30 6 0 16
56 104 67 104 6 0 13 -22 15 -52z m88 -8 c0 -33 4 -60 10 -60 6 0 10 -4 10
-10 0 -5 -13 -10 -30 -10 -16 0 -30 5 -30 10 0 6 5 10 10 10 6 0 10 20 10 45
0 38 -2 43 -17 38 -16 -6 -16 -4 1 15 29 34 36 27 36 -38z m117 48 c14 -23 12
-106 -2 -118 -33 -27 -86 8 -70 46 4 11 7 27 6 37 -5 38 47 64 66 35z m-1726
-46 c-15 -5 -14 -59 2 -65 6 -2 9 -7 6 -11 -15 -17 -37 8 -41 47 -6 59 0 72
24 50 11 -10 15 -19 9 -21z m-361 13 c9 -10 9 -15 1 -15 -15 0 -14 -57 2 -63
6 -2 9 -7 6 -11 -15 -17 -37 8 -41 47 -7 58 5 74 32 42z m-172 -7 c23 -23 13
-38 -24 -38 -41 0 -44 -24 -3 -27 42 -2 44 -3 29 -13 -35 -23 -80 1 -80 44 0
28 18 46 45 46 12 0 26 -5 33 -12z m117 3 c3 -5 -9 -11 -27 -13 -28 -2 -33 -7
-33 -28 0 -21 5 -26 33 -28 36 -4 34 -22 -3 -22 -28 0 -55 24 -55 50 0 37 67
69 85 41z m169 -7 c31 -30 9 -84 -34 -84 -24 0 -50 26 -50 50 0 24 26 50 50
50 10 0 26 -7 34 -16z m86 6 c0 -4 -7 -10 -15 -14 -9 -3 -15 -19 -15 -41 0
-19 -4 -35 -10 -35 -5 0 -10 22 -10 49 0 45 2 49 25 49 14 0 25 -4 25 -8z
m274 -6 c21 -20 20 -43 -1 -66 -20 -22 -46 -23 -67 -2 -31 30 -9 84 34 84 10
0 26 -7 34 -16z m113 9 c14 -6 10 -9 -17 -13 -29 -4 -35 -9 -35 -30 0 -21 5
-26 33 -28 36 -4 34 -22 -3 -22 -28 0 -55 24 -55 50 0 22 25 50 45 50 7 0 22
-3 32 -7z m250 0 c14 -6 10 -9 -17 -13 -29 -4 -35 -9 -35 -30 0 -21 5 -26 33
-28 36 -4 34 -22 -3 -22 -28 0 -55 24 -55 50 0 22 25 50 45 50 7 0 22 -3 32
-7z m107 -9 c31 -30 9 -84 -34 -84 -24 0 -50 26 -50 50 0 24 26 50 50 50 10 0
26 -7 34 -16z m113 4 c7 -5 14 -5 18 2 10 16 42 12 49 -6 10 -25 7 -84 -4 -84
-5 0 -10 18 -10 41 0 33 -3 40 -17 37 -13 -2 -19 -14 -21 -41 -4 -50 -22 -47
-22 4 0 36 -2 40 -22 37 -19 -2 -24 -10 -26 -40 -5 -55 -22 -46 -22 10 0 48 0
49 33 49 17 0 37 -4 44 -9z m-327 -78 c0 -5 -4 -10 -10 -10 -5 0 -10 5 -10 10
0 6 5 10 10 10 6 0 10 -4 10 -10z"/>
<path d="M2150 500 c0 -5 5 -10 10 -10 6 0 10 5 10 10 0 6 -4 10 -10 10 -5 0
-10 -4 -10 -10z"/>
<path d="M536 418 c-28 -39 -21 -48 39 -48 59 0 67 9 45 51 -15 27 -64 25 -84
-3z"/>
<path d="M986 424 c-50 -50 -21 -144 44 -144 48 0 80 50 66 104 -13 53 -75 75
-110 40z"/>
<path d="M1616 408 c-22 -31 -20 -74 4 -98 26 -26 55 -25 74 2 32 46 8 118
-39 118 -13 0 -31 -10 -39 -22z"/>
<path d="M9087 350 c-18 -29 -18 -30 2 -30 17 0 21 6 21 30 0 17 -1 30 -3 30
-1 0 -11 -13 -20 -30z"/>
<path d="M9194 375 c-7 -18 3 -35 21 -35 18 0 26 15 19 34 -8 20 -33 21 -40 1z"/>
<path d="M9304 365 c-9 -38 3 -75 26 -75 23 0 35 37 26 75 -4 16 -13 25 -26
25 -13 0 -22 -9 -26 -25z"/>
<path d="M9437 350 c-18 -29 -18 -30 2 -30 17 0 21 6 21 30 0 17 -1 30 -3 30
-1 0 -11 -13 -20 -30z"/>
<path d="M9642 374 c2 -11 11 -20 22 -22 13 -3 17 1 14 14 -2 11 -11 20 -22
22 -13 3 -17 -1 -14 -14z"/>
<path d="M9634 325 c-8 -21 10 -39 30 -32 22 9 20 24 -4 37 -16 9 -22 8 -26
-5z"/>
<path d="M7375 340 c-4 -6 5 -10 19 -10 14 0 26 5 26 10 0 6 -9 10 -19 10 -11
0 -23 -4 -26 -10z"/>
<path d="M7654 336 c-10 -26 4 -48 28 -44 17 2 23 10 23 28 0 18 -6 26 -23 28
-13 2 -25 -3 -28 -12z"/>
<path d="M8014 336 c-10 -26 4 -48 28 -44 17 2 23 10 23 28 0 18 -6 26 -23 28
-13 2 -25 -3 -28 -12z"/>
<path d="M8484 336 c-10 -26 4 -48 28 -44 17 2 23 10 23 28 0 18 -6 26 -23 28
-13 2 -25 -3 -28 -12z"/>
</g>
</svg>
